<?xml version="1.0" encoding="utf-8"?>
<!-- Generator: Adobe Illustrator 25.4.1, SVG Export Plug-In . SVG Version: 6.00 Build 0)  -->
<svg version="1.1" id="图层_1" focusable="false" xmlns="http://www.w3.org/2000/svg" xmlns:xlink="http://www.w3.org/1999/xlink"
	 x="0px" y="0px" viewBox="0 0 64 64" style="enable-background:new 0 0 64 64;" xml:space="preserve">
<style type="text/css">
	.st0{fill-rule:evenodd;clip-rule:evenodd;}
</style>
<path class="st0" d="M46.1,12.2c-0.1,0-1.5,0.2-1.6,0.3l-16.2,3c-0.5,0.1-0.8,0.3-1.1,0.5c-0.3,0.3-0.6,0.7-0.6,1.1
	c0,0.1,0,0.3,0,0.6v22.1c0,1-0.7,1.8-1.7,2l-4.3,0.7c-2.3,0.4-4.1,2.4-4.1,4.8c0,2.5,2.1,4.5,4.6,4.5c0.3,0,0.6,0,0.9-0.1l1.5-0.3
	c2.8-0.5,4.8-3,4.8-5.8V26.4c0-1,0.3-1.3,1.2-1.5c0,0,14.4-2.9,15.1-3c0.2,0,0.4-0.1,0.5-0.1c0.6,0,1,0.3,1,1.1v12.7
	c0,1-0.7,1.8-1.7,2l-4,0.8c-2.6,0.5-4.4,2.4-4.4,4.8c0,2.5,2.3,4.4,5,4.4c0.3,0,0.7,0,1-0.1l1.6-0.3c3.5-1,4.2-4.2,4.2-6.4V13.8
	c0-0.9-0.5-1.5-1.4-1.5H46.1L46.1,12.2z"/>
</svg>
