<?xml version="1.0" encoding="utf-8"?>
<!-- Generator: Adobe Illustrator 25.4.1, SVG Export Plug-In . SVG Version: 6.00 Build 0)  -->
<svg version="1.1" id="图层_1" xmlns="http://www.w3.org/2000/svg" xmlns:xlink="http://www.w3.org/1999/xlink" x="0px" y="0px"
	 viewBox="0 0 64 64" style="enable-background:new 0 0 64 64;" xml:space="preserve">
<path d="M14.1,29c1.1,0,1.9-0.8,1.9-1.9v-1.7l-0.4-7.2l5.5,5.7l6.4,6.4c0.4,0.4,0.8,0.5,1.3,0.5c1.2,0,2.1-0.8,2.1-1.9
	c0-0.6-0.2-1.1-0.6-1.4L23.8,21l-5.7-5.5l7.3,0.4h1.7c1.1,0,2-0.8,2-1.9c0-1.1-0.8-1.9-2-1.9H15.6c-2.1,0-3.3,1.2-3.3,3.3v11.5
	C12.2,28.1,13,29,14.1,29z M36.9,51.8h11.5c2.1,0,3.4-1.2,3.4-3.3V36.9c0-1.1-0.8-1.9-1.9-1.9c-1.1,0-1.9,0.8-1.9,1.9v1.7l0.4,7.2
	l-5.5-5.7l-6.4-6.4c-0.4-0.4-0.8-0.5-1.3-0.5c-1.2,0-2.1,0.8-2.1,1.9c0,0.6,0.2,1.1,0.6,1.4l6.4,6.4l5.8,5.5L38.6,48h-1.7
	c-1.1,0-2,0.8-2,1.9C34.9,51,35.8,51.8,36.9,51.8L36.9,51.8z"/>
</svg>
