<?xml version="1.0" encoding="utf-8"?>
<!-- Generator: Adobe Illustrator 25.4.1, SVG Export Plug-In . SVG Version: 6.00 Build 0)  -->
<svg version="1.1" id="图层_1" xmlns="http://www.w3.org/2000/svg" xmlns:xlink="http://www.w3.org/1999/xlink" x="0px" y="0px"
	 viewBox="0 0 64 64" style="enable-background:new 0 0 64 64;" xml:space="preserve">
<path d="M13.9,33.7c0,9.9,8.2,18.1,18.1,18.1c9.9,0,18.1-8.2,18.1-18.1c0-6-3-11.3-7.6-14.6c-0.8-0.6-1.8-0.4-2.2,0.3
	c-0.4,0.7-0.2,1.6,0.5,2.1c3.8,2.7,6.2,7.1,6.2,12.2c0,8.4-6.7,15.1-15.1,15.1s-15-6.7-15-15.1c0-7.2,4.9-13.1,11.6-14.6v2.5
	c0,1.3,0.9,1.6,1.8,0.9l5.6-4c0.8-0.5,0.8-1.4,0-2l-5.6-4c-1-0.7-1.9-0.4-1.9,0.9V16C20.3,17.6,13.9,25,13.9,33.7L13.9,33.7z"/>
</svg>
