<?xml version="1.0" encoding="utf-8"?>
<!-- Generator: Adobe Illustrator 25.4.1, SVG Export Plug-In . SVG Version: 6.00 Build 0)  -->
<svg version="1.1" id="图层_1" xmlns="http://www.w3.org/2000/svg" xmlns:xlink="http://www.w3.org/1999/xlink" x="0px" y="0px"
	 viewBox="0 0 64 64" style="enable-background:new 0 0 64 64;" xml:space="preserve">
<path d="M19.3,51.8h5.8c2.7,0,4.1-1.4,4.1-4.1V16.3c0-2.6-1.4-4-4.1-4.1h-5.8c-2.7,0-4.1,1.4-4.1,4.1v31.4
	C15.1,50.4,16.5,51.8,19.3,51.8L19.3,51.8z M38.9,51.8h5.8c2.7,0,4.1-1.4,4.1-4.1V16.3c0-2.6-1.4-4.1-4.1-4.1h-5.8
	c-2.7,0-4.1,1.4-4.1,4.1v31.4C34.8,50.4,36.1,51.8,38.9,51.8L38.9,51.8z"/>
</svg>
