<?xml version="1.0" encoding="utf-8"?>
<!-- Generator: Adobe Illustrator 25.4.1, SVG Export Plug-In . SVG Version: 6.00 Build 0)  -->
<svg version="1.1" id="图层_1" xmlns="http://www.w3.org/2000/svg" xmlns:xlink="http://www.w3.org/1999/xlink" x="0px" y="0px"
	 viewBox="0 0 64 64" style="enable-background:new 0 0 64 64;" xml:space="preserve">
<path d="M27.4,48.7c1.1,0,1.8-0.7,1.8-1.8v-3.5h13c5.9,0,9.6-3.3,9.6-8.5v-1.6c0-0.6-0.2-1.2-0.7-1.6c-0.4-0.4-1-0.7-1.6-0.7
	c-0.6,0-1.2,0.2-1.6,0.7c-0.4,0.4-0.7,1-0.7,1.6v1.2c0,2.7-1.9,4.5-4.8,4.5H29.2v-3.6c0-1.1-0.7-1.8-1.8-1.8c-0.5,0-0.9,0.2-1.3,0.5
	l-6.8,5.8c-0.9,0.7-0.8,1.8,0,2.5l6.8,5.8C26.5,48.5,26.9,48.7,27.4,48.7L27.4,48.7z M14.5,32.9c0.6,0,1.2-0.2,1.6-0.7
	c0.4-0.4,0.7-1,0.7-1.6v-1.2c0-2.7,1.9-4.5,4.7-4.5h13.3v3.6c0,1.1,0.7,1.8,1.8,1.8c0.5,0,0.9-0.2,1.3-0.5l6.9-5.8
	c0.8-0.7,0.8-1.8,0-2.5l-6.9-5.8c-0.4-0.3-0.8-0.5-1.3-0.5c-1.1,0-1.8,0.7-1.8,1.8v3.4h-13c-5.9,0-9.6,3.3-9.6,8.5v1.6
	C12.2,31.9,13.2,32.9,14.5,32.9L14.5,32.9z"/>
</svg>
