<?xml version="1.0" encoding="utf-8"?>
<!-- Generator: Adobe Illustrator 25.4.1, SVG Export Plug-In . SVG Version: 6.00 Build 0)  -->
<svg version="1.1" id="图层_1" xmlns="http://www.w3.org/2000/svg" xmlns:xlink="http://www.w3.org/1999/xlink" x="0px" y="0px"
	 viewBox="0 0 64 64" style="enable-background:new 0 0 64 64;" xml:space="preserve">
<path d="M43.6,47.7c0.5,0,0.9-0.2,1.2-0.5l6.3-5.3c0.8-0.7,0.8-1.7,0-2.4l-6.3-5.4c-0.4-0.3-0.8-0.4-1.2-0.5c-1,0-1.7,0.6-1.7,1.7
	v3.1h-2.9c-1.8,0-2.9-0.6-4.2-2.1L31.1,32l3.8-4.5c1.3-1.6,2.3-2.1,4.1-2.1h3v3.1c0,1,0.6,1.6,1.7,1.6c0.5,0,0.9-0.1,1.2-0.4
	l6.3-5.4c0.8-0.7,0.8-1.7,0-2.4l-6.3-5.4c-0.3-0.3-0.7-0.4-1.2-0.5c-1,0-1.7,0.6-1.7,1.6v3.4h-3c-3,0-4.9,0.8-7,3.4l-3.5,4.1
	l-3.6-4.3c-2-2.3-3.9-3.2-6.8-3.2h-3.7c-1.3,0-2.2,0.9-2.2,2.1c0,1.2,0.9,2.1,2.2,2.1H18c1.7,0,2.9,0.6,4.1,2.1l3.7,4.4l-3.7,4.5
	c-1.3,1.5-2.3,2.1-4,2.1h-3.6c-1.3,0-2.2,0.9-2.2,2.1c0,1.2,0.9,2.1,2.2,2.1h3.8c2.9,0,4.7-0.9,6.7-3.2l3.6-4.3l3.6,4.2
	c2,2.4,4,3.3,6.9,3.3h3v3.5C42,47.1,42.6,47.7,43.6,47.7L43.6,47.7z"/>
</svg>
