<?xml version="1.0" encoding="utf-8"?>
<!-- Generator: Adobe Illustrator 25.4.1, SVG Export Plug-In . SVG Version: 6.00 Build 0)  -->
<svg version="1.1" id="图层_1" xmlns="http://www.w3.org/2000/svg" xmlns:xlink="http://www.w3.org/1999/xlink" x="0px" y="0px"
	 viewBox="0 0 64 64" style="enable-background:new 0 0 64 64;" xml:space="preserve">
<path d="M34.2,43.2c0.6,0,1.1-0.2,1.7-0.5l14.2-8.4c1-0.6,1.6-1.4,1.6-2.3c0-0.9-0.5-1.7-1.6-2.3L36,21.3c-0.6-0.4-1.1-0.5-1.8-0.5
	c-1.2,0-2.2,0.9-2.2,2.6v8c-0.2-0.7-0.7-1.2-1.5-1.7l-14.2-8.4c-0.6-0.4-1.1-0.5-1.7-0.5c-1.2,0-2.3,0.9-2.3,2.6v17.1
	c0,1.7,1,2.6,2.3,2.6c0.6,0,1.1-0.2,1.7-0.5l14.2-8.4c0.8-0.5,1.3-1.1,1.5-1.7v8C32,42.3,33,43.2,34.2,43.2L34.2,43.2z"/>
</svg>
