<?xml version="1.0" encoding="utf-8"?>
<!-- Generator: Adobe Illustrator 25.4.1, SVG Export Plug-In . SVG Version: 6.00 Build 0)  -->
<svg version="1.1" id="图层_1" xmlns="http://www.w3.org/2000/svg" xmlns:xlink="http://www.w3.org/1999/xlink" x="0px" y="0px"
	 viewBox="0 0 64 64" style="enable-background:new 0 0 64 64;" xml:space="preserve">
<path d="M16.6,51.8c-2.4,0-4.4-2-4.4-4.4c0-1.2,0.4-2.4,1.2-3.2L25.7,32L13.4,19.7c-0.8-0.8-1.2-2-1.2-3.2c0-2.4,2-4.4,4.4-4.4
	c1.2,0,2.4,0.4,3.2,1.2L32,26.1l12.3-12.7c0.8-0.8,2-1.2,3.2-1.2c2.4,0,4.4,2,4.4,4.4c0,1.2-0.4,2.4-1.2,3.2L38.3,32l12.3,12.3
	c0.8,0.8,1.2,2,1.2,3.2c0,2.4-2,4.4-4.4,4.4c-1.2,0-2.4-0.4-3.2-1.2L32,38.3L19.7,50.6C18.9,51.4,17.8,51.8,16.6,51.8z"/>
</svg>
