<svg xmlns="http://www.w3.org/2000/svg" viewBox="84.21 19.78 99.61 109.06"><path d="M84.205 79.035c0 27.246 22.608 49.804 49.805 49.804 27.246 0 49.805-22.558 49.805-49.804 0-16.407-8.301-31.153-20.85-40.284-2.148-1.66-4.834-1.123-6.055.88-1.22 2.05-.586 4.345 1.416 5.859 10.4 7.421 17.139 19.677 17.188 33.545.049 23.046-18.457 41.503-41.504 41.503-23.047 0-41.455-18.457-41.455-41.503 0-19.776 13.574-36.182 32.031-40.381v6.982c0 3.467 2.393 4.395 5.078 2.49L145.24 37.19c2.198-1.514 2.247-3.858 0-5.469l-15.527-10.937c-2.734-1.954-5.127-1.026-5.127 2.49v6.885c-22.851 4.492-40.38 24.853-40.38 48.877Z"/></svg>
